<?xml version="1.0" encoding="UTF-8" standalone="no"?>
<svg
   xmlns:dc="http://purl.org/dc/elements/1.1/"
   xmlns:cc="http://creativecommons.org/ns#"
   xmlns:rdf="http://www.w3.org/1999/02/22-rdf-syntax-ns#"
   xmlns:svg="http://www.w3.org/2000/svg"
   xmlns="http://www.w3.org/2000/svg"
   xmlns:sodipodi="http://sodipodi.sourceforge.net/DTD/sodipodi-0.dtd"
   xmlns:inkscape="http://www.inkscape.org/namespaces/inkscape"
   sodipodi:docname="csv.svg"
   inkscape:version="1.0 (4035a4fb49, 2020-05-01)"
   id="svg5"
   version="1.1"
   viewBox="0 0 64 64"
   height="64mm"
   width="64mm">
  <metadata
     id="metadata14">
    <rdf:RDF>
      <cc:Work
         rdf:about="">
        <dc:format>image/svg+xml</dc:format>
        <dc:type
           rdf:resource="http://purl.org/dc/dcmitype/StillImage" />
        <dc:title></dc:title>
      </cc:Work>
    </rdf:RDF>
  </metadata>
  <sodipodi:namedview
     inkscape:document-rotation="0"
     inkscape:current-layer="layer1"
     inkscape:window-maximized="1"
     inkscape:window-y="-8"
     inkscape:window-x="-8"
     inkscape:window-height="987"
     inkscape:window-width="1680"
     inkscape:cy="124.08275"
     inkscape:cx="126.1633"
     inkscape:zoom="3.2035073"
     showgrid="false"
     inkscape:document-units="mm"
     inkscape:pagecheckerboard="true"
     inkscape:pageopacity="0"
     inkscape:pageshadow="2"
     borderopacity="1.0"
     bordercolor="#666666"
     pagecolor="#5c5c5c"
     id="namedview7" />
  <defs
     id="defs2" />
  <g
     id="layer1"
     inkscape:groupmode="layer"
     inkscape:label="Layer 1">
    <rect
       ry="0"
       y="2.266964"
       x="9.7828121"
       height="59.466072"
       width="44.434376"
       id="rect839"
       style="fill:none;stroke:#ffffff;stroke-width:3;stroke-linecap:round;stroke-linejoin:round" />
    <rect
       ry="1.4866518"
       y="8.5069523"
       x="16.435762"
       height="4.0469966"
       width="31.384871"
       id="rect841"
       style="fill:#ffffff;stroke:none;stroke-width:3;stroke-linecap:round;stroke-linejoin:round" />
    <rect
       style="fill:#ffffff;stroke:none;stroke-width:3;stroke-linecap:round;stroke-linejoin:round"
       id="rect841-1"
       width="31.384872"
       height="4.0469966"
       x="16.43576"
       y="15.91528"
       ry="1.4866519" />
    <rect
       ry="1.4866519"
       y="23.32362"
       x="16.43576"
       height="4.0469966"
       width="31.384876"
       id="rect841-1-5"
       style="fill:#ffffff;stroke:none;stroke-width:3;stroke-linecap:round;stroke-linejoin:round" />
    <path
       transform="scale(0.26458333)"
       d="m 15.904297,121.20898 c -3.545977,0 -6.4003908,2.85442 -6.4003908,6.4004 v 83.56445 c 1e-7,3.54598 2.8544138,6.40039 6.4003908,6.40039 H 225.98438 c 3.54597,0 6.40039,-2.85441 6.40039,-6.40039 v -83.56445 c 0,-3.54598 -2.85442,-6.4004 -6.40039,-6.4004 z m 59.482422,23.4961 c 1.999952,0 3.798825,0.11753 5.394531,0.35156 1.616983,0.21276 3.105129,0.49964 4.466797,0.86133 1.425499,0.40424 2.714373,0.86242 3.863281,1.37305 1.170185,0.48935 2.190183,0.94557 3.0625,1.37109 v 11.52148 h -1.404297 c -0.595731,-0.51062 -1.350755,-1.11625 -2.265625,-1.81836 -0.893596,-0.70211 -1.915545,-1.39338 -3.064453,-2.07421 -1.170184,-0.68084 -2.435204,-1.25654 -3.796875,-1.72461 -1.361668,-0.46808 -2.819893,-0.70118 -4.373047,-0.70118 -1.723364,0 -3.360908,0.27691 -4.914062,0.83008 -1.553154,0.53191 -2.989478,1.4244 -4.308594,2.67969 -1.255289,1.21274 -2.275285,2.82036 -3.0625,4.82031 -0.765939,1.99995 -1.150391,4.4244 -1.150391,7.27539 0,2.97865 0.416327,5.4688 1.246094,7.46875 0.851044,1.99996 1.914843,3.57375 3.191406,4.72266 1.297842,1.17018 2.744138,2.01086 4.339844,2.52148 1.595707,0.48935 3.169502,0.73438 4.722656,0.73438 1.489326,0 2.957524,-0.22313 4.404297,-0.66992 1.468049,-0.4468 2.818721,-1.05438 4.052735,-1.82032 1.042529,-0.617 2.010703,-1.2764 2.904296,-1.97851 0.893597,-0.70211 1.628673,-1.30773 2.203126,-1.81836 h 1.27539 v 11.36133 c -1.191461,0.5319 -2.328983,1.03192 -3.414062,1.5 -1.08508,0.46807 -2.224555,0.87247 -3.416016,1.21289 -1.553154,0.4468 -3.009426,0.78745 -4.371094,1.02148 -1.36167,0.23403 -3.234266,0.34961 -5.617187,0.34961 -3.53183,0 -6.796948,-0.51997 -9.796875,-1.5625 -2.978651,-1.04253 -5.542521,-2.59637 -7.691406,-4.66015 -2.148884,-2.06379 -3.820258,-4.63763 -5.011719,-7.72266 -1.170185,-3.08503 -1.753907,-6.64895 -1.753907,-10.69141 0,-3.76587 0.563775,-7.18038 1.691407,-10.24414 1.127632,-3.06375 2.765177,-5.69137 4.914062,-7.88281 2.063779,-2.10633 4.617677,-3.7339 7.660157,-4.88281 3.063758,-1.14891 6.402598,-1.72461 10.019531,-1.72461 z m 44.808591,0.0644 c 3.12759,0 6.21143,0.30877 9.25391,0.92578 3.06375,0.59573 5.71328,1.35076 7.94726,2.26563 v 10.94726 h -1.30859 c -1.91485,-1.53188 -4.26557,-2.80882 -7.05273,-3.83008 -2.76589,-1.04252 -5.59474,-1.56445 -8.48828,-1.56445 -1.02126,0 -2.0432,0.0737 -3.06446,0.22266 -0.99997,0.12765 -1.96815,0.3846 -2.9043,0.76758 -0.82976,0.31914 -1.54294,0.80724 -2.13867,1.46679 -0.59573,0.63828 -0.89257,1.37336 -0.89257,2.20313 0,1.25529 0.47812,2.22346 1.43554,2.90429 0.95743,0.65956 2.76627,1.26519 5.42578,1.81836 1.74464,0.3617 3.41406,0.71232 5.00977,1.05274 1.61698,0.34042 3.35211,0.80856 5.20312,1.4043 3.63821,1.19146 6.31766,2.81903 8.04102,4.88281 1.74464,2.0425 2.61719,4.702 2.61719,7.97851 0,4.68074 -1.98817,8.48969 -5.9668,11.42578 -3.95735,2.91483 -9.34205,4.37305 -16.15039,4.37305 -3.93608,0 -7.37054,-0.34065 -10.30664,-1.02148 -2.91483,-0.70211 -5.65,-1.58659 -8.203126,-2.65039 v -11.39258 h 1.341797 c 2.531859,2.02123 5.360699,3.57508 8.488279,4.66016 3.14886,1.08508 6.17091,1.62695 9.06446,1.62695 0.74466,0 1.7228,-0.0638 2.93554,-0.19141 1.21274,-0.12765 2.20086,-0.3408 2.9668,-0.63867 0.93615,-0.38297 1.7031,-0.86109 2.29883,-1.43555 0.617,-0.57445 0.92578,-1.4251 0.92578,-2.55273 0,-1.04253 -0.44625,-1.93698 -1.33985,-2.68164 -0.87232,-0.76594 -2.16119,-1.35162 -3.86328,-1.75586 -1.78719,-0.42552 -3.67973,-0.818 -5.67968,-1.17969 -1.97868,-0.38297 -3.8413,-0.86109 -5.58594,-1.43555 -3.99991,-1.29784 -6.88253,-3.05486 -8.64844,-5.26757 -1.744639,-2.23399 -2.617187,-4.99908 -2.617187,-8.29688 0,-4.42542 1.980147,-8.03119 5.937497,-10.81836 3.97863,-2.80844 9.08447,-4.21289 15.31836,-4.21289 z m 22.21094,0.86133 h 12.86133 l 11.49023,33.38281 11.48828,-33.38281 h 12.54297 l -17.33008,47.51953 h -13.72265 z"
       style="fill:#ffffff;stroke:none;stroke-width:11.3386;stroke-linecap:round;stroke-linejoin:round"
       id="rect873" />
  </g>
</svg>
