<?xml version="1.0" encoding="UTF-8" standalone="no"?>
<svg
   xmlns:dc="http://purl.org/dc/elements/1.1/"
   xmlns:cc="http://creativecommons.org/ns#"
   xmlns:rdf="http://www.w3.org/1999/02/22-rdf-syntax-ns#"
   xmlns:svg="http://www.w3.org/2000/svg"
   xmlns="http://www.w3.org/2000/svg"
   xmlns:sodipodi="http://sodipodi.sourceforge.net/DTD/sodipodi-0.dtd"
   xmlns:inkscape="http://www.inkscape.org/namespaces/inkscape"
   sodipodi:docname="keyboard.svg"
   inkscape:version="1.0 (4035a4fb49, 2020-05-01)"
   id="svg5"
   version="1.1"
   viewBox="0 0 64 64"
   height="64mm"
   width="64mm">
  <metadata
     id="metadata14">
    <rdf:RDF>
      <cc:Work
         rdf:about="">
        <dc:format>image/svg+xml</dc:format>
        <dc:type
           rdf:resource="http://purl.org/dc/dcmitype/StillImage" />
        <dc:title></dc:title>
      </cc:Work>
    </rdf:RDF>
  </metadata>
  <sodipodi:namedview
     inkscape:document-rotation="0"
     inkscape:current-layer="layer1"
     inkscape:window-maximized="1"
     inkscape:window-y="-8"
     inkscape:window-x="-8"
     inkscape:window-height="987"
     inkscape:window-width="1680"
     inkscape:cy="147.2081"
     inkscape:cx="73.252298"
     inkscape:zoom="2.2652217"
     showgrid="false"
     inkscape:document-units="mm"
     inkscape:pagecheckerboard="0"
     inkscape:pageopacity="0.0"
     inkscape:pageshadow="2"
     borderopacity="1.0"
     bordercolor="#666666"
     pagecolor="#ffffff"
     id="namedview7" />
  <defs
     id="defs2" />
  <g
     id="layer1"
     inkscape:groupmode="layer"
     inkscape:label="Layer 1">
    <path
       transform="scale(0.26458333)"
       d="m 25.201172,53.691406 c -9.740261,0 -17.5820314,7.841773 -17.5820314,17.582032 V 207.48438 c 0,9.74025 7.8417704,17.58203 17.5820314,17.58203 H 217.28711 c 9.74026,0 17.58203,-7.84178 17.58203,-17.58203 V 71.273438 c 0,-9.740259 -7.84177,-17.582032 -17.58203,-17.582032 z M 195.0332,78.546875 h 18.85938 c 3.50928,0 6.33398,2.826654 6.33398,6.335937 v 62.560548 c 0,3.50928 -2.8247,6.33398 -6.33398,6.33398 H 195.0332 c -3.50928,0 -6.33398,-2.8247 -6.33398,-6.33398 V 84.882812 c 0,-3.509283 2.8247,-6.335937 6.33398,-6.335937 z m -124.017575,0.625 h 17.169922 c 3.977514,0 7.177734,3.202169 7.177734,7.179687 v 18.730468 c 0,3.97752 -3.20022,7.17774 -7.177734,7.17774 H 71.015625 c -3.977514,0 -7.179687,-3.20022 -7.179687,-7.17774 V 86.351562 c 0,-3.977518 3.202173,-7.179687 7.179687,-7.179687 z m 41.390625,0 h 17.16797 c 3.97751,0 7.17969,3.202169 7.17969,7.179687 v 18.730468 c 0,3.97752 -3.20218,7.17774 -7.17969,7.17774 h -17.16797 c -3.97751,0 -7.17969,-3.20022 -7.17969,-7.17774 V 86.351562 c 0,-3.977518 3.20218,-7.179687 7.17969,-7.179687 z m 42.26758,0 h 17.16992 c 3.97751,0 7.17969,3.202169 7.17969,7.179687 v 18.730468 c 0,3.97752 -3.20218,7.17774 -7.17969,7.17774 h -17.16992 c -3.97752,0 -7.17969,-3.20022 -7.17969,-7.17774 V 86.351562 c 0,-3.977518 3.20217,-7.179687 7.17969,-7.179687 z m -122.833986,0.3125 h 17.167968 c 3.977519,0 7.179688,3.202169 7.179688,7.179687 v 18.728518 c 0,3.97751 -3.202169,7.17969 -7.179688,7.17969 H 31.839844 c -3.977516,0 -7.179688,-3.20218 -7.179688,-7.17969 V 86.664062 c 0,-3.977518 3.202172,-7.179687 7.179688,-7.179687 z m 81.316406,41.517575 h 17.16992 c 3.97752,0 7.17969,3.20217 7.17969,7.17969 v 18.72852 c 0,3.97751 -3.20217,7.17968 -7.17969,7.17968 h -17.16992 c -3.97751,0 -7.17773,-3.20217 -7.17773,-7.17968 v -18.72852 c 0,-3.97752 3.20022,-7.17969 7.17773,-7.17969 z m 43.39063,0 h 17.16992 c 3.97751,0 7.17773,3.20217 7.17773,7.17969 v 18.72852 c 0,3.97751 -3.20022,7.17968 -7.17773,7.17968 h -17.16992 c -3.97752,0 -7.17969,-3.20217 -7.17969,-7.17968 v -18.72852 c 0,-3.97752 3.20217,-7.17969 7.17969,-7.17969 z M 31.996094,122.25 h 58.685547 c 3.977518,0 7.179687,3.20217 7.179687,7.17969 v 18.72851 c 0,3.97752 -3.202169,7.17969 -7.179687,7.17969 H 31.996094 c -3.977515,0 -7.179688,-3.20217 -7.179688,-7.17969 v -18.72851 c 0,-3.97752 3.202173,-7.17969 7.179688,-7.17969 z m 2.185547,45.26172 H 210.55078 c 3.97752,0 7.17969,3.20217 7.17969,7.17969 v 18.73047 c 0,3.97751 -3.20217,7.17968 -7.17969,7.17968 H 34.181641 c -3.977516,0 -7.179688,-3.20217 -7.179688,-7.17968 v -18.73047 c 0,-3.97752 3.202172,-7.17969 7.179688,-7.17969 z"
       style="fill:#ffffff;stroke:#ffffff;stroke-width:3.77953;stroke-linecap:round;stroke-linejoin:round"
       id="rect839" />
    <path
       sodipodi:nodetypes="cc"
       id="path913"
       d="M 14.900135,16.270578 C 15.01027,2.7253652 32.037195,16.374035 31.996631,2.5603446"
       style="fill:none;stroke:#ffffff;stroke-width:3;stroke-linecap:round;stroke-linejoin:round;stroke-miterlimit:4;stroke-dasharray:none;stroke-opacity:1" />
  </g>
</svg>
