<?xml version="1.0" standalone="no"?>
<!DOCTYPE svg PUBLIC "-//W3C//DTD SVG 20010904//EN"
 "http://www.w3.org/TR/2001/REC-SVG-20010904/DTD/svg10.dtd">
<svg version="1.0" xmlns="http://www.w3.org/2000/svg"
 width="700.000000pt" height="700.000000pt" viewBox="0 0 700.000000 700.000000"
 preserveAspectRatio="xMidYMid meet">
<metadata>
Created by potrace 1.14, written by Peter Selinger 2001-2017
</metadata>
<g transform="translate(0.000000,700.000000) scale(0.100000,-0.100000)"
fill="#000000" stroke="none">
<path d="M1217 6563 c-1 0 -22 -2 -47 -4 -109 -6 -211 -97 -235 -209 -4 -19
-8 -1304 -8 -2855 0 -2787 1 -2822 20 -2866 27 -60 66 -104 122 -137 l46 -27
2386 0 2386 0 48 30 c59 37 110 101 126 158 9 31 12 765 12 2867 l0 2825 -22
51 c-28 63 -81 116 -146 145 l-50 22 -2318 1 c-1275 1 -2319 0 -2320 -1z
m4413 -419 c58 -27 106 -76 136 -139 l24 -50 0 -641 c0 -703 1 -692 -60 -766
-16 -20 -51 -49 -77 -64 l-48 -29 -2101 -3 c-2050 -2 -2103 -2 -2146 17 -64
27 -112 73 -142 135 l-27 54 0 634 c-1 462 2 645 11 677 23 85 87 153 171 181
43 15 232 16 2131 16 l2083 -1 45 -21z m38 -2219 c60 -33 100 -79 126 -144 14
-36 17 -78 18 -215 0 -94 -3 -187 -7 -206 -18 -85 -76 -154 -160 -191 -45 -20
-66 -22 -210 -22 -175 0 -204 7 -274 62 -20 16 -50 53 -66 83 l-30 53 0 205
c0 195 1 207 23 252 29 58 99 122 155 141 31 11 87 14 207 13 162 -1 166 -2
218 -31z m-980 -13 c66 -35 118 -94 139 -160 26 -81 25 -373 -2 -448 -30 -84
-91 -141 -181 -166 -71 -20 -325 -16 -377 6 -64 26 -114 73 -144 134 -28 57
-28 58 -28 257 1 189 2 202 24 245 30 59 67 97 116 122 63 33 80 35 250 33
144 -1 164 -3 203 -23z m-994 -36 c83 -37 135 -94 159 -176 16 -56 15 -366 -1
-425 -21 -73 -71 -128 -152 -167 -41 -20 -61 -22 -210 -22 -161 -1 -166 0
-222 27 -64 31 -101 70 -131 137 -18 40 -21 67 -22 228 -1 229 7 261 83 339
68 68 114 80 317 77 107 -1 149 -5 179 -18z m-993 -13 c58 -26 110 -77 140
-139 22 -46 23 -59 23 -244 0 -221 -8 -253 -79 -325 -67 -66 -109 -78 -279
-81 -172 -2 -228 9 -293 62 -24 20 -53 58 -69 91 -27 55 -28 62 -29 227 -1 94
2 191 7 216 18 96 99 181 197 206 26 6 108 10 191 9 121 -2 153 -5 191 -22z
m-985 -12 c63 -17 130 -75 161 -140 28 -56 28 -58 28 -258 0 -148 -3 -205 -12
-215 -7 -6 -13 -20 -13 -29 0 -25 -90 -114 -136 -135 -32 -15 -69 -18 -214
-18 -164 -1 -178 1 -219 22 -69 37 -118 94 -138 160 -15 48 -18 91 -17 235 2
163 4 179 26 229 40 85 112 143 198 158 56 10 291 4 336 -9z m3900 -1045 c63
-29 114 -77 145 -136 l24 -45 0 -745 0 -745 -30 -54 c-43 -78 -114 -131 -195
-146 -19 -4 -283 -7 -586 -7 -406 0 -561 3 -591 12 -71 22 -134 77 -172 153
l-34 68 0 707 c0 389 3 718 6 732 20 97 95 180 194 216 30 11 153 13 613 13
l575 0 51 -23z m-1903 -36 c59 -28 121 -97 141 -157 22 -64 23 -367 1 -440
-20 -67 -80 -134 -147 -164 -49 -21 -67 -23 -218 -23 -158 1 -167 2 -215 26
-54 28 -98 72 -130 128 -18 31 -20 58 -23 222 -5 237 5 279 81 353 76 73 110
82 302 80 144 -1 165 -4 208 -25z m-1012 -2 c50 -22 105 -73 137 -127 26 -45
27 -50 30 -239 3 -161 1 -201 -14 -244 -21 -63 -79 -129 -142 -159 -43 -21
-61 -22 -217 -22 -193 0 -216 6 -290 74 -74 68 -86 116 -85 337 2 160 4 190
21 231 34 77 101 137 177 156 68 17 338 12 383 -7z m-976 -17 c85 -29 153
-100 176 -185 6 -23 9 -117 7 -230 -3 -211 -9 -233 -78 -303 -64 -65 -107 -77
-281 -78 -195 -2 -233 8 -304 80 -77 77 -84 107 -82 337 2 181 3 196 25 238
42 79 109 133 187 150 55 11 308 5 350 -9z m1961 -1060 c49 -13 113 -58 143
-99 45 -64 51 -101 48 -310 -2 -184 -4 -200 -25 -240 -34 -63 -84 -108 -150
-132 -51 -19 -73 -21 -217 -18 -176 4 -204 12 -272 77 -69 66 -78 96 -81 296
-3 113 0 199 8 233 22 101 119 187 225 202 68 9 278 3 321 -9z m-1028 -4 c88
-14 170 -84 205 -175 14 -35 17 -76 15 -245 l-3 -202 -37 -54 c-42 -61 -101
-106 -161 -122 -24 -6 -104 -9 -196 -7 -140 3 -161 6 -200 26 -53 29 -94 70
-123 125 -21 39 -23 58 -26 230 -3 159 -1 197 14 245 21 65 81 133 142 159 55
24 270 36 370 20z m-886 -45 c60 -30 112 -90 134 -154 23 -70 23 -376 0 -446
-22 -64 -71 -121 -132 -152 -47 -24 -57 -25 -229 -25 -201 0 -224 6 -294 77
-69 69 -76 99 -76 328 0 194 1 207 23 247 69 130 160 164 412 153 93 -4 124
-10 162 -28z"/>
</g>
</svg>
