<?xml version="1.0" encoding="UTF-8" standalone="no"?>
<svg
   xmlns:dc="http://purl.org/dc/elements/1.1/"
   xmlns:cc="http://creativecommons.org/ns#"
   xmlns:rdf="http://www.w3.org/1999/02/22-rdf-syntax-ns#"
   xmlns:svg="http://www.w3.org/2000/svg"
   xmlns="http://www.w3.org/2000/svg"
   xmlns:sodipodi="http://sodipodi.sourceforge.net/DTD/sodipodi-0.dtd"
   xmlns:inkscape="http://www.inkscape.org/namespaces/inkscape"
   sodipodi:docname="image.svg"
   inkscape:version="1.0 (4035a4fb49, 2020-05-01)"
   id="svg5"
   version="1.1"
   viewBox="0 0 64 64"
   height="64mm"
   width="64mm">
  <metadata
     id="metadata14">
    <rdf:RDF>
      <cc:Work
         rdf:about="">
        <dc:format>image/svg+xml</dc:format>
        <dc:type
           rdf:resource="http://purl.org/dc/dcmitype/StillImage" />
        <dc:title></dc:title>
      </cc:Work>
    </rdf:RDF>
  </metadata>
  <sodipodi:namedview
     inkscape:document-rotation="0"
     inkscape:current-layer="layer1"
     inkscape:window-maximized="1"
     inkscape:window-y="-8"
     inkscape:window-x="-8"
     inkscape:window-height="987"
     inkscape:window-width="1680"
     inkscape:cy="124.39491"
     inkscape:cx="119.08823"
     inkscape:zoom="3.2035073"
     showgrid="false"
     inkscape:document-units="mm"
     inkscape:pagecheckerboard="true"
     inkscape:pageopacity="0"
     inkscape:pageshadow="2"
     borderopacity="1.0"
     bordercolor="#666666"
     pagecolor="#404040"
     id="namedview7" />
  <defs
     id="defs2" />
  <g
     id="layer1"
     inkscape:groupmode="layer"
     inkscape:label="Layer 1">
    <path
       transform="scale(0.26458333)"
       d="m 20.601562,10.925781 c -3.112837,0 -5.617187,2.506304 -5.617187,5.619141 V 226.00195 c 0,3.11284 2.50435,5.61914 5.617187,5.61914 H 220.69531 c 3.11284,0 5.61914,-2.5063 5.61914,-5.61914 V 16.544922 c 0,-3.112837 -2.5063,-5.619141 -5.61914,-5.619141 z M 153.42578,38.394531 A 18.261235,18.261235 0 0 1 171.6875,56.65625 18.261235,18.261235 0 0 1 153.42578,74.917969 18.261235,18.261235 0 0 1 135.16406,56.65625 18.261235,18.261235 0 0 1 153.42578,38.394531 Z m -91.619139,51.507813 55.876949,74.605466 50.88086,-41.51758 45.26367,94.58399 -187.607417,0.3125 z"
       style="fill:#ffffff;stroke-width:11.3386;stroke-linecap:round;stroke-linejoin:round"
       id="rect839" />
  </g>
</svg>
