<?xml version="1.0" encoding="UTF-8" standalone="no"?>
<!-- Created with Inkscape (http://www.inkscape.org/) -->

<svg
   width="64mm"
   height="64mm"
   viewBox="0 0 64 64"
   version="1.1"
   id="svg5"
   inkscape:version="1.1 (c68e22c387, 2021-05-23)"
   sodipodi:docname="template.svg"
   xmlns:inkscape="http://www.inkscape.org/namespaces/inkscape"
   xmlns:sodipodi="http://sodipodi.sourceforge.net/DTD/sodipodi-0.dtd"
   xmlns="http://www.w3.org/2000/svg"
   xmlns:svg="http://www.w3.org/2000/svg">
  <sodipodi:namedview
     id="namedview7"
     pagecolor="#ffffff"
     bordercolor="#666666"
     borderopacity="1.0"
     inkscape:pageshadow="2"
     inkscape:pageopacity="0.0"
     inkscape:pagecheckerboard="0"
     inkscape:document-units="mm"
     showgrid="false"
     inkscape:zoom="3.2035073"
     inkscape:cx="119.08823"
     inkscape:cy="124.39491"
     inkscape:window-width="2560"
     inkscape:window-height="1377"
     inkscape:window-x="-8"
     inkscape:window-y="-8"
     inkscape:window-maximized="1"
     inkscape:current-layer="g12911" />
  <defs
     id="defs2" />
  <g
     inkscape:label="Layer 1"
     inkscape:groupmode="layer"
     id="layer1">
    <g
       id="g12911"
       transform="translate(1.0074396,0.00901146)">
      <rect
         style="fill:none;stroke:#ffffff;stroke-width:3;stroke-linecap:round;stroke-linejoin:round"
         id="rect10241"
         width="19.574249"
         height="18.170189"
         x="1.8996106"
         y="23.869022"
         ry="2.0127144" />
      <rect
         style="fill:none;stroke:#ffffff;stroke-width:3;stroke-linecap:round;stroke-linejoin:round"
         id="rect10241-0"
         width="19.574249"
         height="18.170189"
         x="40.511261"
         y="11.315072"
         ry="2.0127144" />
      <rect
         style="fill:none;stroke:#ffffff;stroke-width:3;stroke-linecap:round;stroke-linejoin:round"
         id="rect10241-2"
         width="19.574249"
         height="18.170189"
         x="40.263485"
         y="35.101501"
         ry="2.0127144" />
      <g
         aria-label="{"
         transform="matrix(0.58797175,0,0,1.1585268,7.7877463,0)"
         id="text11139"
         style="font-size:56.6126px;line-height:1.25;font-family:Arial;-inkscape-font-specification:Arial;fill:#ffffff;stroke-width:1.41531">
        <path
           d="m 28.299171,30.930652 v -6.634289 q 2.017929,-0.110571 3.040715,-0.608143 1.022786,-0.497572 1.769144,-1.658572 0.746357,-1.188644 1.022786,-2.957787 0.221143,-1.326858 0.221143,-4.61636 0,-5.3627166 0.497572,-7.4635747 0.497571,-2.128501 1.796786,-3.4000731 1.299215,-1.2992149 3.787074,-2.0455724 1.686215,-0.4975716 5.307431,-0.4975716 h 1.465072 v 6.606646 q -3.068359,0 -3.952931,0.3593573 -0.856929,0.3317144 -1.271572,1.0504291 -0.414643,0.6910717 -0.414643,2.4049294 0,1.741501 -0.248786,6.606646 -0.138214,2.736644 -0.718714,4.450502 -0.5805,1.686216 -1.492715,2.79193 -0.884572,1.105715 -2.736644,2.294359 1.630929,0.939857 2.653715,2.211429 1.050429,1.243929 1.603287,3.040716 0.552857,1.796786 0.718714,4.809859 0.1935,4.588717 0.1935,5.860289 0,1.824429 0.442286,2.543144 0.442286,0.718715 1.326858,1.078072 0.912215,0.387 3.897645,0.387 v 6.634289 h -1.465072 q -3.731788,0 -5.722074,-0.608143 -1.990287,-0.5805 -3.372431,-1.962644 -1.3545,-1.382144 -1.824429,-3.427716 -0.469929,-2.017929 -0.469929,-6.385503 0,-5.086288 -0.442286,-6.606646 -0.608143,-2.21143 -1.852072,-3.151287 -1.216286,-0.967501 -3.75943,-1.105715 z"
           style="font-weight:bold;fill:#ffffff"
           id="path12913" />
      </g>
    </g>
  </g>
</svg>
